<svg xmlns="http://www.w3.org/2000/svg" xmlns:xlink="http://www.w3.org/1999/xlink" width="500" zoomAndPan="magnify" viewBox="0 0 375 374.999991" height="500" preserveAspectRatio="xMidYMid meet" version="1.0"><defs><g/><clipPath id="343ff6c482"><path d="M 49.433594 49.433594 L 325.566406 49.433594 L 325.566406 325.566406 L 49.433594 325.566406 Z M 49.433594 49.433594 " clip-rule="nonzero"/></clipPath><clipPath id="ac192c4556"><path d="M 187.5 49.433594 C 111.246094 49.433594 49.433594 111.246094 49.433594 187.5 C 49.433594 263.753906 111.246094 325.566406 187.5 325.566406 C 263.753906 325.566406 325.566406 263.753906 325.566406 187.5 C 325.566406 111.246094 263.753906 49.433594 187.5 49.433594 Z M 187.5 49.433594 " clip-rule="nonzero"/></clipPath><clipPath id="69d5748fba"><path d="M 160 107 L 221.546875 107 L 221.546875 167 L 160 167 Z M 160 107 " clip-rule="nonzero"/></clipPath><clipPath id="58b8bfa54d"><path d="M 85.101562 237.625 L 89.601562 237.625 L 89.601562 242 L 85.101562 242 Z M 85.101562 237.625 " clip-rule="nonzero"/></clipPath><clipPath id="671faaeb0c"><path d="M 85.101562 239.757812 C 85.101562 240.933594 86.054688 241.890625 87.230469 241.890625 C 88.40625 241.890625 89.363281 240.933594 89.363281 239.757812 C 89.363281 238.582031 88.40625 237.625 87.230469 237.625 C 86.054688 237.625 85.101562 238.582031 85.101562 239.757812 Z M 85.101562 239.757812 " clip-rule="nonzero"/></clipPath><clipPath id="04a06d1817"><path d="M 285.050781 237.625 L 289.550781 237.625 L 289.550781 242 L 285.050781 242 Z M 285.050781 237.625 " clip-rule="nonzero"/></clipPath><clipPath id="ed1c7057f2"><path d="M 285.050781 239.757812 C 285.050781 240.933594 286.003906 241.890625 287.179688 241.890625 C 288.355469 241.890625 289.3125 240.933594 289.3125 239.757812 C 289.3125 238.582031 288.355469 237.625 287.179688 237.625 C 286.003906 237.625 285.050781 238.582031 285.050781 239.757812 Z M 285.050781 239.757812 " clip-rule="nonzero"/></clipPath></defs><g clip-path="url(#343ff6c482)"><g clip-path="url(#ac192c4556)"><path fill="#323232" d="M 49.433594 49.433594 L 325.566406 49.433594 L 325.566406 325.566406 L 49.433594 325.566406 Z M 49.433594 49.433594 " fill-opacity="1" fill-rule="nonzero"/></g></g><path fill="#ffffff" d="M 177.671875 104.308594 C 178.816406 104.308594 179.746094 103.378906 179.746094 102.230469 L 179.746094 98.214844 C 179.746094 93.019531 183.980469 88.785156 189.191406 88.785156 C 194.40625 88.785156 198.640625 93.019531 198.640625 98.214844 L 198.640625 102.230469 C 198.640625 103.378906 199.570312 104.308594 200.714844 104.308594 C 201.859375 104.308594 202.789062 103.378906 202.789062 102.230469 L 202.789062 98.777344 C 202.789062 91.523438 197.34375 85.148438 190.089844 84.667969 C 182.203125 84.152344 175.597656 90.429688 175.597656 98.214844 L 175.597656 102.230469 C 175.597656 103.378906 176.527344 104.308594 177.671875 104.308594 Z M 177.671875 104.308594 " fill-opacity="1" fill-rule="nonzero"/><g clip-path="url(#69d5748fba)"><path fill="#1ce831" d="M 221.320312 158.265625 L 216.753906 113.855469 C 216.386719 110.316406 213.417969 107.644531 209.863281 107.644531 L 168.523438 107.644531 C 164.96875 107.644531 162 110.335938 161.632812 113.855469 L 160.488281 124.910156 C 159.722656 132.332031 166.78125 138.128906 173.902344 135.953125 L 177.769531 134.773438 C 182.171875 133.429688 187.085938 135.652344 188.8125 140.535156 C 189.410156 142.226562 189.324219 144.085938 188.792969 145.8125 L 187.085938 151.390625 C 184.726562 159.097656 190.488281 166.882812 198.539062 166.882812 L 213.550781 166.882812 C 218.179688 166.867188 221.800781 162.863281 221.320312 158.265625 Z M 221.320312 158.265625 " fill-opacity="1" fill-rule="nonzero"/></g><path fill="#ffffff" d="M 179.230469 139.523438 L 156.867188 146.34375 C 153.613281 147.339844 153.382812 151.855469 156.519531 153.183594 L 161.847656 155.425781 C 164.671875 156.621094 166.929688 158.863281 168.125 161.703125 L 170.367188 167.03125 C 171.695312 170.167969 176.210938 169.9375 177.207031 166.683594 L 184.03125 144.320312 C 184.941406 141.382812 182.1875 138.625 179.230469 139.523438 Z M 179.230469 139.523438 " fill-opacity="1" fill-rule="nonzero"/><g fill="#ffffff" fill-opacity="1"><g transform="translate(118.663473, 246.132992)"><g><path d="M 9.71875 -2.6875 L 3.921875 -2.6875 L 2.8125 0 L -0.15625 0 L 5.421875 -12.515625 L 8.28125 -12.515625 L 13.875 0 L 10.828125 0 Z M 8.8125 -4.875 L 6.828125 -9.671875 L 4.84375 -4.875 Z M 8.8125 -4.875 "/></g></g></g><g fill="#ffffff" fill-opacity="1"><g transform="translate(137.357461, 246.132992)"><g><path d="M 6.046875 -4.921875 L 4.359375 -3.15625 L 4.359375 0 L 1.484375 0 L 1.484375 -12.515625 L 4.359375 -12.515625 L 4.359375 -6.671875 L 9.90625 -12.515625 L 13.125 -12.515625 L 7.9375 -6.9375 L 13.421875 0 L 10.046875 0 Z M 6.046875 -4.921875 "/></g></g></g><g fill="#ffffff" fill-opacity="1"><g transform="translate(155.586794, 246.132992)"><g><path d="M 5.59375 0.21875 C 4.601562 0.21875 3.644531 0.0820312 2.71875 -0.1875 C 1.800781 -0.457031 1.0625 -0.804688 0.5 -1.234375 L 1.484375 -3.421875 C 2.015625 -3.023438 2.648438 -2.707031 3.390625 -2.46875 C 4.128906 -2.226562 4.867188 -2.109375 5.609375 -2.109375 C 6.429688 -2.109375 7.039062 -2.226562 7.4375 -2.46875 C 7.832031 -2.71875 8.03125 -3.046875 8.03125 -3.453125 C 8.03125 -3.742188 7.910156 -3.988281 7.671875 -4.1875 C 7.441406 -4.382812 7.144531 -4.539062 6.78125 -4.65625 C 6.414062 -4.78125 5.925781 -4.914062 5.3125 -5.0625 C 4.351562 -5.28125 3.570312 -5.503906 2.96875 -5.734375 C 2.363281 -5.960938 1.84375 -6.328125 1.40625 -6.828125 C 0.96875 -7.328125 0.75 -7.992188 0.75 -8.828125 C 0.75 -9.554688 0.945312 -10.210938 1.34375 -10.796875 C 1.738281 -11.390625 2.332031 -11.859375 3.125 -12.203125 C 3.914062 -12.554688 4.882812 -12.734375 6.03125 -12.734375 C 6.820312 -12.734375 7.597656 -12.632812 8.359375 -12.4375 C 9.128906 -12.25 9.800781 -11.976562 10.375 -11.625 L 9.46875 -9.421875 C 8.3125 -10.078125 7.15625 -10.40625 6 -10.40625 C 5.195312 -10.40625 4.597656 -10.269531 4.203125 -10 C 3.816406 -9.738281 3.625 -9.394531 3.625 -8.96875 C 3.625 -8.539062 3.847656 -8.222656 4.296875 -8.015625 C 4.742188 -7.804688 5.425781 -7.601562 6.34375 -7.40625 C 7.300781 -7.175781 8.082031 -6.945312 8.6875 -6.71875 C 9.289062 -6.488281 9.8125 -6.128906 10.25 -5.640625 C 10.6875 -5.160156 10.90625 -4.503906 10.90625 -3.671875 C 10.90625 -2.953125 10.703125 -2.296875 10.296875 -1.703125 C 9.898438 -1.117188 9.300781 -0.648438 8.5 -0.296875 C 7.707031 0.046875 6.738281 0.21875 5.59375 0.21875 Z M 5.59375 0.21875 "/></g></g></g><g fill="#ffffff" fill-opacity="1"><g transform="translate(171.993292, 246.132992)"><g><path d="M 11.171875 -2.328125 L 11.171875 0 L 1.484375 0 L 1.484375 -12.515625 L 10.9375 -12.515625 L 10.9375 -10.1875 L 4.359375 -10.1875 L 4.359375 -7.46875 L 10.171875 -7.46875 L 10.171875 -5.21875 L 4.359375 -5.21875 L 4.359375 -2.328125 Z M 11.171875 -2.328125 "/></g></g></g><g fill="#ffffff" fill-opacity="1"><g transform="translate(188.989524, 246.132992)"><g><path d="M 5.59375 0.21875 C 4.601562 0.21875 3.644531 0.0820312 2.71875 -0.1875 C 1.800781 -0.457031 1.0625 -0.804688 0.5 -1.234375 L 1.484375 -3.421875 C 2.015625 -3.023438 2.648438 -2.707031 3.390625 -2.46875 C 4.128906 -2.226562 4.867188 -2.109375 5.609375 -2.109375 C 6.429688 -2.109375 7.039062 -2.226562 7.4375 -2.46875 C 7.832031 -2.71875 8.03125 -3.046875 8.03125 -3.453125 C 8.03125 -3.742188 7.910156 -3.988281 7.671875 -4.1875 C 7.441406 -4.382812 7.144531 -4.539062 6.78125 -4.65625 C 6.414062 -4.78125 5.925781 -4.914062 5.3125 -5.0625 C 4.351562 -5.28125 3.570312 -5.503906 2.96875 -5.734375 C 2.363281 -5.960938 1.84375 -6.328125 1.40625 -6.828125 C 0.96875 -7.328125 0.75 -7.992188 0.75 -8.828125 C 0.75 -9.554688 0.945312 -10.210938 1.34375 -10.796875 C 1.738281 -11.390625 2.332031 -11.859375 3.125 -12.203125 C 3.914062 -12.554688 4.882812 -12.734375 6.03125 -12.734375 C 6.820312 -12.734375 7.597656 -12.632812 8.359375 -12.4375 C 9.128906 -12.25 9.800781 -11.976562 10.375 -11.625 L 9.46875 -9.421875 C 8.3125 -10.078125 7.15625 -10.40625 6 -10.40625 C 5.195312 -10.40625 4.597656 -10.269531 4.203125 -10 C 3.816406 -9.738281 3.625 -9.394531 3.625 -8.96875 C 3.625 -8.539062 3.847656 -8.222656 4.296875 -8.015625 C 4.742188 -7.804688 5.425781 -7.601562 6.34375 -7.40625 C 7.300781 -7.175781 8.082031 -6.945312 8.6875 -6.71875 C 9.289062 -6.488281 9.8125 -6.128906 10.25 -5.640625 C 10.6875 -5.160156 10.90625 -4.503906 10.90625 -3.671875 C 10.90625 -2.953125 10.703125 -2.296875 10.296875 -1.703125 C 9.898438 -1.117188 9.300781 -0.648438 8.5 -0.296875 C 7.707031 0.046875 6.738281 0.21875 5.59375 0.21875 Z M 5.59375 0.21875 "/></g></g></g><g fill="#ffffff" fill-opacity="1"><g transform="translate(205.396019, 246.132992)"><g><path d="M 7.046875 0.21875 C 5.253906 0.21875 3.859375 -0.273438 2.859375 -1.265625 C 1.867188 -2.253906 1.375 -3.664062 1.375 -5.5 L 1.375 -12.515625 L 4.265625 -12.515625 L 4.265625 -5.609375 C 4.265625 -3.367188 5.195312 -2.25 7.0625 -2.25 C 7.96875 -2.25 8.65625 -2.519531 9.125 -3.0625 C 9.601562 -3.601562 9.84375 -4.453125 9.84375 -5.609375 L 9.84375 -12.515625 L 12.703125 -12.515625 L 12.703125 -5.5 C 12.703125 -3.664062 12.203125 -2.253906 11.203125 -1.265625 C 10.210938 -0.273438 8.828125 0.21875 7.046875 0.21875 Z M 7.046875 0.21875 "/></g></g></g><g fill="#ffffff" fill-opacity="1"><g transform="translate(224.483172, 246.132992)"><g><path d="M 9.71875 -2.6875 L 3.921875 -2.6875 L 2.8125 0 L -0.15625 0 L 5.421875 -12.515625 L 8.28125 -12.515625 L 13.875 0 L 10.828125 0 Z M 8.8125 -4.875 L 6.828125 -9.671875 L 4.84375 -4.875 Z M 8.8125 -4.875 "/></g></g></g><g fill="#ffffff" fill-opacity="1"><g transform="translate(243.177163, 246.132992)"><g><path d="M 9.453125 0 L 7.046875 -3.484375 L 4.375 -3.484375 L 4.375 0 L 1.484375 0 L 1.484375 -12.515625 L 6.90625 -12.515625 C 8.007812 -12.515625 8.96875 -12.328125 9.78125 -11.953125 C 10.601562 -11.585938 11.234375 -11.0625 11.671875 -10.375 C 12.109375 -9.695312 12.328125 -8.894531 12.328125 -7.96875 C 12.328125 -7.039062 12.101562 -6.238281 11.65625 -5.5625 C 11.21875 -4.894531 10.585938 -4.378906 9.765625 -4.015625 L 12.5625 0 Z M 9.40625 -7.96875 C 9.40625 -8.675781 9.175781 -9.21875 8.71875 -9.59375 C 8.269531 -9.96875 7.609375 -10.15625 6.734375 -10.15625 L 4.375 -10.15625 L 4.375 -5.796875 L 6.734375 -5.796875 C 7.609375 -5.796875 8.269531 -5.984375 8.71875 -6.359375 C 9.175781 -6.742188 9.40625 -7.28125 9.40625 -7.96875 Z M 9.40625 -7.96875 "/></g></g></g><g clip-path="url(#58b8bfa54d)"><g clip-path="url(#671faaeb0c)"><path fill="#ffffff" d="M 80.484375 242.582031 L 93.191406 242.582031 L 86.839844 232.46875 Z M 80.484375 242.582031 " fill-opacity="1" fill-rule="nonzero"/></g></g><g clip-path="url(#04a06d1817)"><g clip-path="url(#ed1c7057f2)"><path fill="#ffffff" d="M 287.128906 236.957031 C 282.410156 236.957031 281.019531 242.203125 281.019531 242.203125 L 293.238281 242.203125 C 293.238281 242.203125 291.851562 236.957031 287.128906 236.957031 Z M 287.128906 236.957031 " fill-opacity="1" fill-rule="nonzero"/></g></g><g fill="#1ce831" fill-opacity="1"><g transform="translate(76.845439, 214.467466)"><g><path d="M 17.125 -10.140625 L 17.125 0 L 10.5 0 L 10.5 -10.21875 L -0.578125 -28.609375 L 6.453125 -28.609375 L 14.109375 -15.90625 L 21.75 -28.609375 L 28.25 -28.609375 Z M 17.125 -10.140625 "/></g></g></g><g fill="#1ce831" fill-opacity="1"><g transform="translate(103.659459, 214.467466)"><g><path d="M 24.484375 -10.90625 C 24.484375 -10.832031 24.441406 -10.265625 24.359375 -9.203125 L 7.71875 -9.203125 C 8.019531 -7.835938 8.726562 -6.757812 9.84375 -5.96875 C 10.96875 -5.175781 12.359375 -4.78125 14.015625 -4.78125 C 15.160156 -4.78125 16.175781 -4.945312 17.0625 -5.28125 C 17.945312 -5.625 18.769531 -6.164062 19.53125 -6.90625 L 22.9375 -3.234375 C 20.863281 -0.859375 17.835938 0.328125 13.859375 0.328125 C 11.378906 0.328125 9.1875 -0.15625 7.28125 -1.125 C 5.375 -2.09375 3.898438 -3.429688 2.859375 -5.140625 C 1.828125 -6.859375 1.3125 -8.8125 1.3125 -11 C 1.3125 -13.144531 1.820312 -15.082031 2.84375 -16.8125 C 3.863281 -18.550781 5.265625 -19.898438 7.046875 -20.859375 C 8.835938 -21.828125 10.835938 -22.3125 13.046875 -22.3125 C 15.191406 -22.3125 17.132812 -21.847656 18.875 -20.921875 C 20.625 -19.992188 21.992188 -18.664062 22.984375 -16.9375 C 23.984375 -15.207031 24.484375 -13.195312 24.484375 -10.90625 Z M 13.078125 -17.5 C 11.628906 -17.5 10.414062 -17.085938 9.4375 -16.265625 C 8.457031 -15.453125 7.859375 -14.335938 7.640625 -12.921875 L 18.46875 -12.921875 C 18.257812 -14.304688 17.660156 -15.414062 16.671875 -16.25 C 15.691406 -17.082031 14.492188 -17.5 13.078125 -17.5 Z M 13.078125 -17.5 "/></g></g></g><g fill="#1ce831" fill-opacity="1"><g transform="translate(128.634105, 214.467466)"><g><path d="M 10.34375 0.328125 C 8.519531 0.328125 6.734375 0.101562 4.984375 -0.34375 C 3.242188 -0.789062 1.851562 -1.359375 0.8125 -2.046875 L 2.9375 -6.625 C 3.925781 -6 5.113281 -5.488281 6.5 -5.09375 C 7.882812 -4.695312 9.25 -4.5 10.59375 -4.5 C 13.289062 -4.5 14.640625 -5.164062 14.640625 -6.5 C 14.640625 -7.125 14.269531 -7.570312 13.53125 -7.84375 C 12.789062 -8.113281 11.660156 -8.347656 10.140625 -8.546875 C 8.335938 -8.816406 6.847656 -9.128906 5.671875 -9.484375 C 4.503906 -9.835938 3.488281 -10.460938 2.625 -11.359375 C 1.769531 -12.265625 1.34375 -13.546875 1.34375 -15.203125 C 1.34375 -16.597656 1.742188 -17.832031 2.546875 -18.90625 C 3.359375 -19.976562 4.53125 -20.8125 6.0625 -21.40625 C 7.601562 -22.007812 9.425781 -22.3125 11.53125 -22.3125 C 13.082031 -22.3125 14.625 -22.140625 16.15625 -21.796875 C 17.695312 -21.460938 18.972656 -20.992188 19.984375 -20.390625 L 17.859375 -15.859375 C 15.921875 -16.953125 13.8125 -17.5 11.53125 -17.5 C 10.164062 -17.5 9.140625 -17.304688 8.453125 -16.921875 C 7.773438 -16.535156 7.4375 -16.046875 7.4375 -15.453125 C 7.4375 -14.765625 7.800781 -14.285156 8.53125 -14.015625 C 9.269531 -13.742188 10.445312 -13.488281 12.0625 -13.25 C 13.851562 -12.945312 15.320312 -12.625 16.46875 -12.28125 C 17.613281 -11.9375 18.609375 -11.316406 19.453125 -10.421875 C 20.296875 -9.523438 20.71875 -8.269531 20.71875 -6.65625 C 20.71875 -5.300781 20.304688 -4.09375 19.484375 -3.03125 C 18.671875 -1.96875 17.484375 -1.140625 15.921875 -0.546875 C 14.359375 0.0351562 12.5 0.328125 10.34375 0.328125 Z M 9.328125 9.484375 C 8.617188 9.484375 7.921875 9.40625 7.234375 9.25 C 6.554688 9.101562 5.988281 8.894531 5.53125 8.625 L 6.5 5.890625 C 7.375 6.296875 8.257812 6.5 9.15625 6.5 C 10.570312 6.5 11.28125 6.0625 11.28125 5.1875 C 11.28125 4.394531 10.613281 4 9.28125 4 L 7.890625 4 L 8.953125 -0.328125 L 12.34375 -0.328125 L 11.78125 2.046875 C 12.976562 2.179688 13.867188 2.554688 14.453125 3.171875 C 15.035156 3.785156 15.328125 4.539062 15.328125 5.4375 C 15.328125 6.6875 14.78125 7.671875 13.6875 8.390625 C 12.601562 9.117188 11.148438 9.484375 9.328125 9.484375 Z M 9.328125 9.484375 "/></g></g></g><g fill="#1ce831" fill-opacity="1"><g transform="translate(149.521242, 214.467466)"><g><path d="M 2.9375 -21.984375 L 9.3125 -21.984375 L 9.3125 0 L 2.9375 0 Z M 6.125 -25.0625 C 4.957031 -25.0625 4.003906 -25.398438 3.265625 -26.078125 C 2.523438 -26.753906 2.15625 -27.597656 2.15625 -28.609375 C 2.15625 -29.617188 2.523438 -30.460938 3.265625 -31.140625 C 4.003906 -31.828125 4.957031 -32.171875 6.125 -32.171875 C 7.300781 -32.171875 8.253906 -31.84375 8.984375 -31.1875 C 9.722656 -30.53125 10.09375 -29.710938 10.09375 -28.734375 C 10.09375 -27.671875 9.722656 -26.789062 8.984375 -26.09375 C 8.253906 -25.40625 7.300781 -25.0625 6.125 -25.0625 Z M 6.125 -25.0625 "/></g></g></g><g fill="#1ce831" fill-opacity="1"><g transform="translate(161.007104, 214.467466)"><g><path d="M 2.9375 -30.328125 L 9.3125 -30.328125 L 9.3125 0 L 2.9375 0 Z M 2.9375 -30.328125 "/></g></g></g><g fill="#ffffff" fill-opacity="1"><g transform="translate(172.493874, 214.467466)"><g><path d="M 24.40625 -14.875 C 26.039062 -14.363281 27.320312 -13.5 28.25 -12.28125 C 29.175781 -11.070312 29.640625 -9.582031 29.640625 -7.8125 C 29.640625 -5.300781 28.664062 -3.367188 26.71875 -2.015625 C 24.769531 -0.671875 21.925781 0 18.1875 0 L 3.390625 0 L 3.390625 -28.609375 L 17.375 -28.609375 C 20.863281 -28.609375 23.539062 -27.941406 25.40625 -26.609375 C 27.269531 -25.273438 28.203125 -23.460938 28.203125 -21.171875 C 28.203125 -19.785156 27.867188 -18.546875 27.203125 -17.453125 C 26.535156 -16.359375 25.601562 -15.5 24.40625 -14.875 Z M 9.96875 -23.625 L 9.96875 -16.875 L 16.546875 -16.875 C 18.179688 -16.875 19.421875 -17.160156 20.265625 -17.734375 C 21.117188 -18.304688 21.546875 -19.15625 21.546875 -20.28125 C 21.546875 -21.394531 21.117188 -22.226562 20.265625 -22.78125 C 19.421875 -23.34375 18.179688 -23.625 16.546875 -23.625 Z M 17.703125 -4.984375 C 19.441406 -4.984375 20.753906 -5.269531 21.640625 -5.84375 C 22.523438 -6.414062 22.96875 -7.300781 22.96875 -8.5 C 22.96875 -10.875 21.210938 -12.0625 17.703125 -12.0625 L 9.96875 -12.0625 L 9.96875 -4.984375 Z M 17.703125 -4.984375 "/></g></g></g><g fill="#ffffff" fill-opacity="1"><g transform="translate(202.945776, 214.467466)"><g><path d="M 24.484375 -10.90625 C 24.484375 -10.832031 24.441406 -10.265625 24.359375 -9.203125 L 7.71875 -9.203125 C 8.019531 -7.835938 8.726562 -6.757812 9.84375 -5.96875 C 10.96875 -5.175781 12.359375 -4.78125 14.015625 -4.78125 C 15.160156 -4.78125 16.175781 -4.945312 17.0625 -5.28125 C 17.945312 -5.625 18.769531 -6.164062 19.53125 -6.90625 L 22.9375 -3.234375 C 20.863281 -0.859375 17.835938 0.328125 13.859375 0.328125 C 11.378906 0.328125 9.1875 -0.15625 7.28125 -1.125 C 5.375 -2.09375 3.898438 -3.429688 2.859375 -5.140625 C 1.828125 -6.859375 1.3125 -8.8125 1.3125 -11 C 1.3125 -13.144531 1.820312 -15.082031 2.84375 -16.8125 C 3.863281 -18.550781 5.265625 -19.898438 7.046875 -20.859375 C 8.835938 -21.828125 10.835938 -22.3125 13.046875 -22.3125 C 15.191406 -22.3125 17.132812 -21.847656 18.875 -20.921875 C 20.625 -19.992188 21.992188 -18.664062 22.984375 -16.9375 C 23.984375 -15.207031 24.484375 -13.195312 24.484375 -10.90625 Z M 13.078125 -17.5 C 11.628906 -17.5 10.414062 -17.085938 9.4375 -16.265625 C 8.457031 -15.453125 7.859375 -14.335938 7.640625 -12.921875 L 18.46875 -12.921875 C 18.257812 -14.304688 17.660156 -15.414062 16.671875 -16.25 C 15.691406 -17.082031 14.492188 -17.5 13.078125 -17.5 Z M 13.078125 -17.5 "/></g></g></g><g fill="#ffffff" fill-opacity="1"><g transform="translate(227.920422, 214.467466)"><g><path d="M 24.765625 -21.984375 L 14.84375 1.34375 C 13.832031 3.882812 12.582031 5.671875 11.09375 6.703125 C 9.613281 7.734375 7.820312 8.25 5.71875 8.25 C 4.570312 8.25 3.441406 8.070312 2.328125 7.71875 C 1.210938 7.363281 0.300781 6.875 -0.40625 6.25 L 1.921875 1.71875 C 2.410156 2.15625 2.972656 2.492188 3.609375 2.734375 C 4.253906 2.984375 4.890625 3.109375 5.515625 3.109375 C 6.390625 3.109375 7.097656 2.894531 7.640625 2.46875 C 8.191406 2.050781 8.679688 1.351562 9.109375 0.375 L 9.203125 0.15625 L -0.328125 -21.984375 L 6.25 -21.984375 L 12.421875 -7.078125 L 18.640625 -21.984375 Z M 24.765625 -21.984375 "/></g></g></g><g fill="#ffffff" fill-opacity="1"><g transform="translate(251.546187, 214.467466)"><g><path d="M 11.8125 -22.3125 C 15.21875 -22.3125 17.832031 -21.5 19.65625 -19.875 C 21.488281 -18.257812 22.40625 -15.816406 22.40625 -12.546875 L 22.40625 0 L 16.4375 0 L 16.4375 -2.734375 C 15.238281 -0.691406 13.003906 0.328125 9.734375 0.328125 C 8.035156 0.328125 6.566406 0.0390625 5.328125 -0.53125 C 4.085938 -1.101562 3.140625 -1.894531 2.484375 -2.90625 C 1.835938 -3.914062 1.515625 -5.054688 1.515625 -6.328125 C 1.515625 -8.378906 2.28125 -9.988281 3.8125 -11.15625 C 5.351562 -12.332031 7.734375 -12.921875 10.953125 -12.921875 L 16.015625 -12.921875 C 16.015625 -14.304688 15.59375 -15.375 14.75 -16.125 C 13.90625 -16.875 12.640625 -17.25 10.953125 -17.25 C 9.785156 -17.25 8.632812 -17.0625 7.5 -16.6875 C 6.363281 -16.320312 5.40625 -15.828125 4.625 -15.203125 L 2.328125 -19.65625 C 3.523438 -20.5 4.960938 -21.148438 6.640625 -21.609375 C 8.316406 -22.078125 10.039062 -22.3125 11.8125 -22.3125 Z M 11.328125 -3.96875 C 12.410156 -3.96875 13.375 -4.21875 14.21875 -4.71875 C 15.0625 -5.226562 15.660156 -5.972656 16.015625 -6.953125 L 16.015625 -9.203125 L 11.65625 -9.203125 C 9.03125 -9.203125 7.71875 -8.34375 7.71875 -6.625 C 7.71875 -5.800781 8.035156 -5.148438 8.671875 -4.671875 C 9.316406 -4.203125 10.203125 -3.96875 11.328125 -3.96875 Z M 11.328125 -3.96875 "/></g></g></g><g fill="#ffffff" fill-opacity="1"><g transform="translate(275.948571, 214.467466)"><g><path d="M 21.046875 -4.90625 L 21.046875 0 L 1.4375 0 L 1.4375 -3.84375 L 12.625 -17.078125 L 1.71875 -17.078125 L 1.71875 -21.984375 L 20.6875 -21.984375 L 20.6875 -18.15625 L 9.484375 -4.90625 Z M 21.046875 -4.90625 "/></g></g></g></svg>